# xmcd
#
# Track frame offsets:
#	150
#	12428
#	22492
#	35324
#	51632
#	59910
#	72437
#	84226
#	111787
#
# Disc length: 2459 seconds
#
# Revision: 2
# Processed by: cddbd v1.5.2PL0 Copyright (c) Steve Scherf et al.
# Submitted via: audiograbber 1.83.01
#
DISCID=84099909
DTITLE=Aborted Fetus - Goresoaked Clinical Accidents
DYEAR=2008
DGENRE=Death Metal
TTITLE0=Handicraft Trepanation
TTITLE1=Hominal Repair
TTITLE2=Into My Flesh(pot)
TTITLE3=Goresoaked Clinical Accident
TTITLE4=Bacterial Sperm Mutation
TTITLE5=Cutting Memories
TTITLE6=Autofagus
TTITLE7=Postmortal Menstrual Secrete
TTITLE8=Hominal Repair
EXTD=
EXTT0=
EXTT1=
EXTT2=
EXTT3=
EXTT4=
EXTT5=
EXTT6=
EXTT7=
EXTT8=
PLAYORDER=
